# xmcd CD database file
#
# Track frame offsets:
#	150
#	12442
#	24813
#	39743
#
# Disc length: 755 seconds
#
# Revision: 0
# Processed by: cddbd v1.5.2PL0 Copyright (c) Steve Scherf et al.
# Submitted via: CDex 1.70beta2
#
DISCID=2402f104
DTITLE=Hurley. Dave - USA - Cool Cool Water
DYEAR=1900
DGENRE=Country
TTITLE0=Strawberry Wine
TTITLE1=Five more Miles to Go
TTITLE2=Give Them a Helping Hand
TTITLE3=Just a Memory
EXTD=
EXTT0=
EXTT1=
EXTT2=
EXTT3=
PLAYORDER=
